<svg id="Capa_1" enable-background="new 0 0 512 512" height="512" viewBox="0 0 512 512" width="512" xmlns="http://www.w3.org/2000/svg"><g><path d="m467 421.75h-15.25v-15.25c0-19.601-12.602-36.305-30.125-42.462v-198.413c0-91.326-74.299-165.625-165.625-165.625s-165.625 74.299-165.625 165.625v198.413c-17.524 6.157-30.125 22.861-30.125 42.462v15.25h-15.25c-24.813 0-45 20.187-45 45v30.25c0 8.284 6.716 15 15 15h482c8.284 0 15-6.716 15-15v-30.25c0-24.813-20.187-45-45-45zm-437 45c0-8.271 6.729-15 15-15h422c8.271 0 15 6.729 15 15v15.25h-452zm90.375-301.125c0-74.784 60.841-135.625 135.625-135.625s135.625 60.841 135.625 135.625v195.875h-30.25v-195.875c0-58.104-47.271-105.375-105.375-105.375s-105.375 47.271-105.375 105.375v195.875h-30.25zm211 195.875h-150.75v-195.875c0-41.562 33.813-75.375 75.375-75.375s75.375 33.813 75.375 75.375zm-241.125 45c0-8.271 6.729-15 15-15h301.5c8.271 0 15 6.729 15 15v15.25h-331.5z"/><path d="m285.162 158.625h-14.162v-15.125c0-8.284-6.716-15-15-15s-15 6.716-15 15v15.125h-14.162c-8.284 0-15 6.716-15 15s6.716 15 15 15h14.162v67.375c0 8.284 6.716 15 15 15s15-6.716 15-15v-67.375h14.162c8.284 0 15-6.716 15-15s-6.716-15-15-15z"/><path d="m285.162 301.25h-58.324c-8.284 0-15 6.716-15 15s6.716 15 15 15h58.324c8.284 0 15-6.716 15-15s-6.716-15-15-15z"/></g></svg>