<svg height="512" viewBox="0 0 60 42" width="512" xmlns="http://www.w3.org/2000/svg"><g id="Page-1" fill="none" fill-rule="evenodd"><g id="022---Surgical-Mask" fill-rule="nonzero"><path id="Shape" d="m11.981 29.007c-2.58092555-.0259935-5.09010651-.8527199-7.181-2.366-2.91581786-1.9229831-4.70805371-5.149381-4.8-8.641v-5c0-2.209139 1.790861-4 4-4h6c.5522847 0 1 .44771525 1 1 0 .5522847-.4477153 1-1 1h-6c-1.1045695 0-2 .8954305-2 2v5c.09750387 2.8434994 1.57641504 5.4605226 3.962 7.011 2.54050444 1.9071405 5.8440154 2.4740415 8.875 1.523.3405088-.1304032.7250044-.0651348 1.0034071.1703291.2784026.2354639.4065772.6037954.3344937.9612241-.0720835.3574286-.332998.6472915-.6809008.7564468-1.1299815.3903359-2.3175039.5880872-3.513.585z" fill="#338f7c"/><path id="Shape" d="m48.021 29.013c-1.8826521.0086821-3.7328533-.4901399-5.356-1.444-.4757933-.2805607-.6340606-.8937067-.3534999-1.3695.2805606-.4757932.8937066-.6340606 1.3694999-.3535 2.9575463 1.6328481 6.5669393 1.5383574 9.435-.247 2.8645626-1.4830739 4.7246792-4.3772234 4.884-7.599v-5c0-1.1045695-.8954305-2-2-2h-6c-.5522847 0-1-.4477153-1-1 0-.55228475.4477153-1 1-1h6c2.209139 0 4 1.790861 4 4v5c-.1585784 3.9400461-2.4036413 7.4973963-5.892 9.336-1.848522 1.0791076-3.9466466 1.6571518-6.087 1.677z" fill="#338f7c"/><path id="Shape" d="m50 10v11c.0826421 10.6552976-7.8673329 19.6652693-18.45 20.91-1.0298493.120002-2.0701507.120002-3.1 0-10.5826671-1.2447307-18.53264211-10.2547024-18.45-20.91v-11l4-.01c5.0625164-.11034929 9.8038884-2.50308822 12.9-6.51.7551558-.93416074 1.8914044-1.47784337 3.0926175-1.47978394 1.201213-.00194057 2.3392123.53806799 3.0973825 1.46978394 3.0976142 4.01176514 7.8427542 6.40822627 12.91 6.52z" fill="#26b899"/><path id="Shape" d="m50 10v2l-4-.01c-5.0672458-.1117737-9.8123858-2.50823486-12.91-6.52-.7581702-.93171595-1.8961695-1.47172451-3.0973825-1.46978394-1.2012131.00194057-2.3374617.5456232-3.0926175 1.47978394-3.0961116 4.00691178-7.8374836 6.3996507-12.9 6.51l-4 .01v-2c.0032948-1.10320187.8967981-1.9967052 2-2h1.51c4.0155488-.04752901 7.7957131-1.90271168 10.29-5.05 1.51724-1.86650111 3.794622-2.95014881 6.2-2.95014881s4.68276 1.0836477 6.2 2.95014881c2.4942869 3.14728832 6.2744512 5.00247099 10.29 5.05h1.51c1.1032019.0032948 1.9967052.89679813 2 2z" fill="#80cbb7"/><g fill="#149f84"><path id="Shape" d="m30 25.988c-4.510601-.0016041-8.9948904-.6870598-13.3-2.033-.3411886-.1061079-.5998521-.3861776-.6785543-.7347095-.0787022-.348532.0345136-.712576.297-.955.2624865-.2424241.6343657-.3263984.9755543-.2202905 8.2706401 2.589997 17.1353599 2.589997 25.406 0 .3411886-.1061079.7130678-.0221336.9755543.2202905.2624864.242424.3757022.606468.297.955-.0787022.3485319-.3373657.6286016-.6785543.7347095-4.3031897 1.3453409-8.7854106 2.0307896-13.294 2.033z"/><path id="Shape" d="m30 18.994c-4.4040114.0033977-8.8017237-.3329333-13.154-1.006-.5400995-.0907439-.9067252-.5990531-.8223782-1.1401885s.5882827-.9137498 1.1303782-.8358115c8.513904 1.3099961 17.178096 1.3099961 25.692 0 .3551081-.0596629.714872.0761988.9418979.3556995.227026.2795007.2862528.6594753.1550617.9948114-.131191.3353362-.4325391.5742457-.7889596.6254891-4.3522763.6730667-8.7499886 1.0093977-13.154 1.006z"/><path id="Shape" d="m30 34.007c-4.6527672-.0135436-9.2429568-1.0730021-13.431-3.1-.346031-.1387965-.5861159-.458566-.6228545-.8295811s.1359703-.7316602.4480604-.9356251c.3120902-.2039649.7117318-.2173764 1.0367941-.0347938 7.9313222 3.8750661 17.2066778 3.8750661 25.138 0 .3250623-.1825826.7247039-.1691711 1.0367941.0347938.3120901.2039649.484799.56461.4480604.9356251s-.2768235.6907846-.6228545.8295811c-4.1880432 2.0269979-8.7782328 3.0864564-13.431 3.1z"/></g></g></g></svg>