<svg height="512" viewBox="0 0 512 512" width="512" xmlns="http://www.w3.org/2000/svg"><g id="Flat"><path d="m424 192v128a168 168 0 0 1 -336 0v-128c0-1.85.04-3.7.13-5.53v-.01a120 120 0 0 1 119.87-114.46h96a119.994 119.994 0 0 1 119.84 113.87c.11 2.03.16 4.08.16 6.13z" fill="#fdc8a2"/><path d="m88 208v-64a72 72 0 0 1 72-72v64z" fill="#804a32"/><path d="m424 208-56-72h-224a80 80 0 0 1 -80-80v-32h240a120 120 0 0 1 120 120z" fill="#91563a"/><path d="m80 208h8a0 0 0 0 1 0 0v96a0 0 0 0 1 0 0h-8a48 48 0 0 1 -48-48 48 48 0 0 1 48-48z" fill="#fdb683"/><path d="m472 208h8a0 0 0 0 1 0 0v96a0 0 0 0 1 0 0h-8a48 48 0 0 1 -48-48 48 48 0 0 1 48-48z" fill="#fdb683" transform="matrix(-1 0 0 -1 904 512)"/><circle cx="168" cy="256" fill="#91563a" r="24"/><circle cx="344" cy="256" fill="#91563a" r="24"/><path d="m208.851 289.667h52.298v16h-52.298z" fill="#fdb683" transform="matrix(.191 -.982 .982 .191 -102.111 471.411)"/><path d="m203.884 214.86a69.622 69.622 0 0 0 -71.768 0l-8.232-13.72a85.591 85.591 0 0 1 88.232 0z" fill="#91563a"/><path d="m379.884 214.86a69.622 69.622 0 0 0 -71.768 0l-8.232-13.72a85.591 85.591 0 0 1 88.232 0z" fill="#91563a"/><g fill="#85ccd5"><path d="m153.13 355.46-14.93 5.75-50.2-130.52v-38.69c0-1.85.04-3.7.13-5.53z"/><path d="m424 192v38.45l-48.19 126.73-14.95-5.69 62.98-165.62c.11 2.03.16 4.08.16 6.13z"/><path d="m384 312v116.81a168.267 168.267 0 0 1 -29.36 27.19h-197.28a168.267 168.267 0 0 1 -29.36-27.19v-116.81z"/></g><g fill="#7cc1c9"><path d="m128 352h256v16h-256z"/><path d="m128 400h256v16h-256z"/></g></g></svg>